<?xml version="1.0" encoding="UTF-8" standalone="no"?>
<!-- Generator: Adobe Illustrator 21.0.0, SVG Export Plug-In . SVG Version: 6.00 Build 0)  -->

<svg
   xmlns:dc="http://purl.org/dc/elements/1.1/"
   xmlns:cc="http://creativecommons.org/ns#"
   xmlns:rdf="http://www.w3.org/1999/02/22-rdf-syntax-ns#"
   xmlns:svg="http://www.w3.org/2000/svg"
   xmlns="http://www.w3.org/2000/svg"
   xmlns:sodipodi="http://sodipodi.sourceforge.net/DTD/sodipodi-0.dtd"
   xmlns:inkscape="http://www.inkscape.org/namespaces/inkscape"
   version="1.1"
   id="Layer_1"
   x="0px"
   y="0px"
   width="68px"
   height="68px"
   viewBox="0 0 68 68"
   style="enable-background:new 0 0 68 68;"
   xml:space="preserve"
   sodipodi:docname="Sauron-eye3.svg"
   inkscape:version="0.92.2 5c3e80d, 2017-08-06"><metadata
     id="metadata24"><rdf:RDF><cc:Work
         rdf:about=""><dc:format>image/svg+xml</dc:format><dc:type
           rdf:resource="http://purl.org/dc/dcmitype/StillImage" /></cc:Work></rdf:RDF></metadata><defs
     id="defs22" /><sodipodi:namedview
     pagecolor="#ffffff"
     bordercolor="#666666"
     borderopacity="1"
     objecttolerance="10"
     gridtolerance="10"
     guidetolerance="10"
     inkscape:pageopacity="0"
     inkscape:pageshadow="2"
     inkscape:window-width="998"
     inkscape:window-height="682"
     id="namedview20"
     showgrid="false"
     inkscape:zoom="3.4705882"
     inkscape:cx="3.6896958"
     inkscape:cy="23.370177"
     inkscape:window-x="71"
     inkscape:window-y="67"
     inkscape:window-maximized="0"
     inkscape:current-layer="Layer_1" /><style
     type="text/css"
     id="style2">
	.st0{fill:none;stroke:#00DCF0;stroke-width:0.2835;stroke-linecap:round;stroke-linejoin:round;stroke-miterlimit:10;}
	.st1{fill:none;stroke:#00DCF0;stroke-width:0.2835;stroke-miterlimit:10;}
	.st2{fill:none;stroke:#000000;stroke-width:0.2835;stroke-linecap:round;stroke-linejoin:round;stroke-miterlimit:10;}
	.st3{fill:none;stroke:#F00000;stroke-width:0.2835;stroke-linecap:round;stroke-linejoin:round;stroke-miterlimit:10;}
</style><rect
     x="-8.5"
     y="-8.5"
     class="st0"
     width="85"
     height="85"
     id="rect4" /><circle
     class="st0"
     cx="34"
     cy="34"
     r="34"
     id="circle6" /><path
     id="scleraBack"
     class="st0"
     d="M34,10c-13.3,0-24,10.7-24,24s10.7,24.1,24,24.1S58.1,47.3,58.1,34S47.3,10,34,10" /><path
     id="scleraFront"
     class="st1"
     d="M34,13.5c11.3,0,20.5,9.2,20.5,20.5S45.3,54.5,34,54.5S13.5,45.3,13.5,34S22.7,13.5,34,13.5" /><path
     id="iris"
     class="st2"
     d="M34,11.1c12.8,0,22.9,10.3,22.9,22.9S46.8,56.9,34,56.9S11.1,46.8,11.1,34S21.2,11.1,34,11.1" /><path
     id="pupilMax"
     class="st2"
     d="M34,14.4c6.8,3.9,11.3,11.2,11.3,19.6S40.8,49.7,34,53.6C27.2,49.7,22.7,42.4,22.7,34  S27.2,18.3,34,14.4" /><path
     id="pupilMin"
     class="st2"
     d="M34,15.1c1.8,6,2.8,12.3,2.8,18.9s-1,12.9-2.8,18.9c-1.8-6-2.8-12.3-2.8-18.9S32.2,21.1,34,15.1" /><style
     id="style1466"
     type="text/css">
	.st0{fill:none;stroke:#00DCF0;stroke-width:0.2835;stroke-linecap:round;stroke-linejoin:round;stroke-miterlimit:10;}
	.st1{fill:none;stroke:#000000;stroke-width:0.2835;stroke-linecap:round;stroke-linejoin:round;stroke-miterlimit:10;}
	.st2{fill:none;stroke:#F00000;stroke-width:0.2835;stroke-linecap:round;stroke-linejoin:round;stroke-miterlimit:10;}
</style><path
     style="fill:none;stroke:#f00000;stroke-width:0.28349999;stroke-linecap:round;stroke-linejoin:round;stroke-miterlimit:10"
     inkscape:connector-curvature="0"
     id="lowerLidClosed"
     class="st2"
     d="m 68.1,29.435593 c 0.3,4.4 -1.9,8.7 -10.5,12.8 -6.9,3.3 -14.6,5.1 -23.5,5.1 -8.9,0 -16.6,-1.8 -23.5,-5.1 -8.5000001,-4.1 -10.80000005,-8.4 -10.50000005,-12.8" /><path
     style="fill:none;stroke:#f00000;stroke-width:0.28349999;stroke-linecap:round;stroke-linejoin:round;stroke-miterlimit:10"
     inkscape:connector-curvature="0"
     id="lowerLidOpen"
     class="st2"
     d="m 68.2,30.835593 c 1,12.4 -4.3,22.6 -11.8,28.6 -7.4,5.9 -15.4,6.9 -22.3,6.9 -6.9,0 -15.1,-1.1 -22.5,-7 -7.5000001,-6 -12.8000001,-16.2 -11.80000005,-28.6" /><path
     style="fill:none;stroke:#f00000;stroke-width:0.28349999;stroke-linecap:round;stroke-linejoin:round;stroke-miterlimit:10"
     inkscape:connector-curvature="0"
     id="lowerLidEdge"
     class="st2"
     d="m 72.7,30.735593 c 0.1,0.8 0.1,1.6 0.1,2.4 0,21.4 -17.3,38.6 -38.7,38.7 -21.4,-0.1 -38.7000031,-17.3 -38.7000031,-38.7 0,-0.8 0,-1.6 0.1,-2.4" /><path
     style="fill:none;stroke:#f00000;stroke-width:0.28349999;stroke-linecap:round;stroke-linejoin:round;stroke-miterlimit:10"
     inkscape:connector-curvature="0"
     id="upperLidClosed"
     class="st2"
     d="m 68.2,30.835593 c -0.2,5.5 -7.8,11.1 -13.3,13.9 -7.1,3.6 -15.4,4.6 -20.9,4.6 h 0.2 c -5.5,0 -13.8,-1 -20.9,-4.6 -5.5000001,-2.8 -13.10000005,-8.4 -13.300000050847447,-13.9" /><path
     style="fill:none;stroke:#f00000;stroke-width:0.28349999;stroke-linecap:round;stroke-linejoin:round;stroke-miterlimit:10"
     inkscape:connector-curvature="0"
     id="upperLidOpen"
     class="st2"
     d="M 67.7,28.335593 C 65.3,11.835593 51.1,-0.86440678 34,-0.86440678 16.9,-0.86440678 2.6999999,11.835593 0.29999995,28.335593" /><path
     style="fill:none;stroke:#f00000;stroke-width:0.28349999;stroke-linecap:round;stroke-linejoin:round;stroke-miterlimit:10"
     inkscape:connector-curvature="0"
     id="upperLidEdge"
     class="st2"
     d="M -4.5000031,29.235593 C -2.6000001,9.6355932 13.9,-5.5644068 34,-5.5644068 c 20.1,0 36.6,15.2 38.5,34.7999998" /></svg>